<?xml version="1.0" ?><svg enable-background="new 0 0 504 504" id="Layer_1" version="1.1" viewBox="0 0 504 504" xml:space="preserve" xmlns="http://www.w3.org/2000/svg" xmlns:xlink="http://www.w3.org/1999/xlink"><path d="M457.6,256.1c-9.2,58.5-27.1,75.6-58.8,114.9c-31.7,33.3-77.3,88.9-141.9,85.8  c-58.5-9.2-75.6-27.1-114.9-58.8c-33.3-31.7-88.9-77.3-85.8-141.9c9.2-58.5,27.1-75.6,58.8-114.9c31.7-33.3,77.3-88.9,141.9-85.8  c58.5,9.2,75.6,27.1,114.9,58.8C405.1,145.9,460.7,191.5,457.6,256.1z" fill="#3765AF"/><path clip-rule="evenodd" d="M160.5,172.4l33.9-3.3c0,0,0.5-42,39.7-47  c47.5-6.1,51.2,37.7,51.2,37.7l41-4.2l18.8,172.6l-166.9,17L160.5,172.4z" fill="#FFFFFF" fill-rule="evenodd"/><path clip-rule="evenodd" d="M240.6,258.8c0,0,12.2-1.7,14,10.2l4.5,26.6c0,0,9.6-8.7,19.2,1  c0,0,10.6-10,20.8,2c0,0,12.9-10.6,22.1,8c9.2,18.6,3.1,49,3.1,49s-2.8,15.3-2.5,25c0.3,9.7-8.1,9.9-8.1,9.9l-45.3,6.7  c0,0-5.2,2.2-9.7-4.5c0,0-29.4-42.3-52.9-61.3c0,0-5.4-6.1,3.6-13.7c9-7.6,18.2-1.2,18.2-1.2l8.6,7.1l-6.5-45.3  C229.5,278.3,225.7,261.9,240.6,258.8z" fill="#3765AF" fill-rule="evenodd"/><path clip-rule="evenodd" d="M238.3,334.4l-14.7-12.5c0,0-6.9-4.2-12.3,3.1l-0.7,1.6  c0,0,17.5,17,32,34.1c12.6,14.8,22.5,30.2,22.5,30.2l49.8-7.1c0,0-0.4-15.4,3.4-32.8c1.5-6.7,1.8-14.7,1.2-22.1  c-0.9-11.7-4.5-23.3-8.8-24.8c-6.9-2.5-8.9,0.4-7.8,6l0.4,6.7h-6.3c0,0-0.4-17.6-9.4-17.4c-8.9,0.2-5.8,15.6-5.8,15.6h-5.6  c0,0,0.9-16.5-8.3-16.5c-9.2,0-7.1,19-7.1,19h-5.4l-7.5-47.2c0,0-0.4-5.3-6.6-4.7c-6.2,0.7-5.5,10.2-5.5,10.2l10.4,69.8l-7.3-0.2  L238.3,334.4z" fill="#FFFFFF" fill-rule="evenodd"/><path clip-rule="evenodd" d="M275.5,159.6l6.8-0.7c0,0-6.8-35.4-36.7-35.6  C245.6,123.3,266.7,128.4,275.5,159.6z" fill="#3765AF" fill-rule="evenodd"/><path clip-rule="evenodd" d="M197.2,168c0,0,2.9-32.6,24.9-40.5c0,0-18.3,16.5-16.9,39.6  L197.2,168z" fill="#3765AF" fill-rule="evenodd"/><path clip-rule="evenodd" d="M207.5,166.6c0,0,2-38.2,27.3-41.1c24.4-2.9,36.9,30.4,36.9,35.2  L207.5,166.6z" fill="#3765AF" fill-rule="evenodd"/></svg>